<svg xmlns="http://www.w3.org/2000/svg" viewBox="0 0 512 512" xml:space="preserve"><circle style="fill:#ffda44" cx="256" cy="256" r="256"/><path style="fill:#ffda44" d="M64.867 401.711a244 244 0 0 0 18.275 21.253l-11.274 10.888a259 259 0 0 1-19.456-22.632zm7.889-324.483 11.222 10.951C39.926 133.319 15.673 192.92 15.673 256c0 44.419 12.215 87.813 35.318 125.471l-13.364 8.192C13.009 349.539 0 303.313 0 256c0-67.197 25.84-130.685 72.756-178.772m58.441-26.644-8.15-13.396C163.004 12.863 208.98 0 256 0c47.752 0 94.333 13.239 134.708 38.275l-8.255 13.312C344.555 28.097 300.826 15.673 256 15.673c-44.147 0-87.301 12.069-124.803 34.911"/><path style="fill:#6a563d" d="M421.094 41.723v198.969c0 123.099-100.477 223.242-223.974 223.242h-13.145c-.69.282-1.369.575-2.069.846l-.324-.846H91.951V342.288a121 121 0 0 1-.982-7.325l.982-.094v-36.446a120 120 0 0 1-.731-5.099l.731-.094V40.594l11.901 7.231c35.485 21.535 92.797 34.398 153.328 34.398 59.601 0 115.064-12.288 152.158-33.708z"/><path style="fill:#a0815c" d="M201.54 160.204c2.905 0 5.747.272 8.516.752-15.579-15.423-35.224-23.218-58.796-23.218-15.82 0-30.824 4.556-43.635 13.197v94.281c10.428-3.02 21.232-4.556 32.266-4.556 9.174 0 18.119 1.076 26.687 3.103-8.746-8.871-14.148-21.034-14.148-34.45 0-27.072 22.026-49.109 49.11-49.109"/><path style="fill:#6a563d" d="M151.259 122.065c44.753 0 78.587 24.618 97.844 71.199 3.176 7.68 5.695 15.329 7.701 22.601 2.048-7.273 4.608-14.942 7.816-22.632 19.435-46.55 53.123-71.168 97.426-71.168 15.381 0 30.135 3.594 43.374 10.491V68.315c-38.787 18.892-91.899 29.581-148.24 29.581-57.898 0-111.438-10.867-149.556-30.093v64.899c13.312-6.99 28.15-10.637 43.635-10.637"/><path style="fill:#fff" d="M344.691 209.314c0-18.432-15.005-33.437-33.437-33.437-18.442 0-33.437 15.005-33.437 33.437 0 18.442 14.994 33.437 33.437 33.437 18.432 0 33.437-14.995 33.437-33.437m-52.773.002c0-10.676 8.655-19.331 19.331-19.331s19.331 8.655 19.331 19.331-8.655 19.331-19.331 19.331-19.331-8.655-19.331-19.331m-90.378 33.435c18.432 0 33.437-14.994 33.437-33.437 0-18.432-15.005-33.437-33.437-33.437-18.442 0-33.437 15.005-33.437 33.437 0 18.442 14.994 33.437 33.437 33.437m-.005-52.766c10.676 0 19.331 8.655 19.331 19.331s-8.655 19.331-19.331 19.331-19.331-8.655-19.331-19.331 8.655-19.331 19.331-19.331"/><path style="fill:#a0815c" d="M255.875 356.645c0 23.834-7.178 46.738-20.762 66.226a116.4 116.4 0 0 1-23.395 24.879c52.527-3.647 99.746-26.781 134.416-62.182h-49.382v-15.673h63.269a207 207 0 0 0 7.847-10.449h-92.014v-15.673h102.024a209 209 0 0 0 5.611-10.449h-84.647v-15.673h91.732c9.571-23.813 14.848-49.779 14.848-76.957V150.76c-12.748-8.516-27.658-13.019-43.374-13.019-23.197 0-42.621 7.722-58.117 23.019a48.4 48.4 0 0 1 7.325-.554c27.073 0 49.11 22.037 49.11 49.11 0 27.084-22.037 49.11-49.11 49.11-18.244 0-34.189-10.01-42.653-24.806-3.553 16.812-4.106 29.111-4.117 29.309l-15.663-.063c-.01-.199-.502-12.946-4.096-30.187-8.328 15.329-24.566 25.746-43.186 25.746h-.042c32.631 20.542 54.376 56.894 54.376 98.22m6.394-38.996h26.122v15.673h-26.122z"/><path style="fill:#6a563d" d="M222.26 413.915c11.734-16.854 17.941-36.655 17.941-57.271 0-55.306-45.004-100.31-100.31-100.31-10.47 0-20.699 1.588-30.511 4.723 5.151 19.466 16.175 37.177 31.566 50.427l-10.23 11.88c-9.091-7.837-16.865-17.032-23.092-27.146v.784c4.023 22.643 15.705 43.207 33.322 58.368l-10.219 11.88a116.6 116.6 0 0 1-23.103-27.031v.616c4.012 22.685 15.663 43.238 33.364 58.462l-10.219 11.88c-9.164-7.889-16.938-17.011-23.144-27.042v64.125h73.143c16.676-7.438 30.96-19.225 41.492-34.345m-57.918 17.432a116 116 0 0 1-22.42-11.688l8.721-13.025a100 100 0 0 0 19.381 10.105zm0-43.885a115.8 115.8 0 0 1-22.417-11.687l8.72-13.025a100 100 0 0 0 19.379 10.103zm0-43.886a115.8 115.8 0 0 1-22.415-11.686l8.719-13.025a100 100 0 0 0 19.379 10.102z"/><circle cx="201.529" cy="209.314" r="19.331"/><circle cx="311.244" cy="209.314" r="19.331"/><path d="M107.624 67.806c38.115 19.222 91.654 30.089 149.553 30.089 56.347 0 109.454-10.685 148.243-29.575v29.9h15.673V41.725l-11.756 6.789c-37.092 21.421-92.552 33.707-152.16 33.707-60.524 0-117.841-12.859-153.324-34.396l-11.902-7.227V98.22h15.673zm62.4 348.933a100 100 0 0 1-19.381-10.105l-8.721 13.025a116 116 0 0 0 22.42 11.688zm0-43.886a100 100 0 0 1-19.379-10.103l-8.72 13.025a116 116 0 0 0 22.417 11.687zm0-43.886a100 100 0 0 1-19.379-10.102l-8.719 13.025a116 116 0 0 0 22.415 11.686zm92.245-11.318h26.122v15.673h-26.122z"/><path d="M0 256c0 47.314 13.011 93.536 37.626 133.666l13.36-8.195C27.885 343.808 15.673 300.421 15.673 256c0-63.082 24.257-122.683 68.303-167.823L72.757 77.232C25.839 125.317 0 188.804 0 256m52.411 155.224a258 258 0 0 0 19.457 22.628l11.272-10.89a243 243 0 0 1-18.272-21.251zM440.132 78.148l-11.272 10.89c43.506 45.033 67.467 104.328 67.467 166.962 0 64.193-24.998 124.545-70.39 169.937-45.392 45.391-105.744 70.39-169.937 70.39-42.874 0-84.095-11.138-120.59-32.392h46.171l.329.846c.694-.27 1.374-.563 2.062-.846h13.153c123.496 0 223.969-100.146 223.969-223.24V120.163H405.42v12.391c-13.24-6.894-27.994-10.488-43.377-10.488-44.297 0-77.985 24.61-97.422 71.168-3.21 7.69-5.773 15.355-7.818 22.628-2.004-7.267-4.528-14.921-7.703-22.603-19.253-46.575-53.085-71.194-97.838-71.194-15.485 0-30.331 3.647-43.638 10.63v-11.488H91.951v342.727h14.709C150.357 495.38 201.947 512 256 512c68.38 0 132.668-26.628 181.019-74.981S512 324.38 512 256c0-66.719-25.524-129.882-71.868-177.852m-128.883 97.731c18.437 0 33.437 14.999 33.437 33.437s-15 33.437-33.437 33.437-33.437-14.999-33.437-33.437c0-18.436 15-33.437 33.437-33.437m-46.765 87.047c.008-.197.564-12.494 4.114-29.313 8.468 14.806 24.408 24.813 42.652 24.813 27.08 0 49.11-22.031 49.11-49.11s-22.031-49.11-49.11-49.11c-2.487 0-4.931.189-7.32.548 15.499-15.289 34.924-23.013 58.114-23.013 15.719 0 30.628 4.496 43.377 13.019v89.933c0 27.177-5.277 53.146-14.849 76.955h-91.731v15.673h84.65a207 207 0 0 1-5.617 10.449H275.853v15.673h92.011a209 209 0 0 1-7.839 10.449h-63.274v15.673h49.385c-34.67 35.402-81.891 58.537-134.421 62.177a116.4 116.4 0 0 0 23.4-24.874c13.577-19.489 20.754-42.388 20.754-66.224 0-41.331-21.735-77.676-54.371-98.221l.037.001c18.627 0 34.865-10.425 43.187-25.746 3.602 17.243 4.092 29.982 4.098 30.181zm-29.512-53.61c0 18.437-15 33.437-33.437 33.437s-33.437-14.999-33.437-33.437 15-33.437 33.437-33.437 33.437 15.001 33.437 33.437m-83.709-71.575c23.565 0 43.217 7.793 58.791 23.22a49 49 0 0 0-8.519-.754c-27.08 0-49.11 22.031-49.11 49.11 0 13.412 5.409 25.58 14.154 34.452a116 116 0 0 0-26.693-3.105c-11.03 0-21.834 1.533-32.262 4.552v-94.282c12.807-8.639 27.811-13.193 43.639-13.193m-43.639 203.091v-.618a116.5 116.5 0 0 0 23.1 27.038l10.226-11.877c-17.617-15.169-29.303-35.732-33.326-58.375v-.777c6.233 10.114 13.998 19.309 23.095 27.142l10.227-11.877c-15.388-13.252-26.419-30.966-31.565-50.424 9.814-3.134 20.039-4.725 30.505-4.725 55.312 0 100.31 44.999 100.31 100.31 0 20.615-6.205 40.417-17.941 57.266-10.532 15.118-24.808 26.908-41.485 34.349h-73.147v-64.125a116.5 116.5 0 0 0 23.146 27.042l10.22-11.882c-17.698-15.228-29.354-35.777-33.365-58.467M256 15.673c44.826 0 88.553 12.421 126.452 35.917l8.259-13.32C350.329 13.234 303.748 0 256 0c-47.021 0-92.998 12.862-132.957 37.192l8.151 13.388C168.697 27.744 211.854 15.673 256 15.673"/><path style="fill:#fff" d="M417.751 384.168c29.188-36.788 44.616-81.107 44.616-128.168 0-4.699-.16-9.447-.475-14.112l-15.638 1.057c.292 4.315.44 8.707.44 13.055 0 43.487-14.254 84.438-41.221 118.428zm38.252-179.215-15.189 3.865a190 190 0 0 1 3.822 19.067l15.505-2.289a206 206 0 0 0-4.138-20.643"/></svg>